<svg xmlns="http://www.w3.org/2000/svg" xmlns:xlink="http://www.w3.org/1999/xlink" id="图层_1" x="0" y="0" version="1.1" viewBox="0 0 558.49 549.34" style="enable-background:new 0 0 558.49 549.34" xml:space="preserve"><style type="text/css">.st1{fill:url(#SVGID_1_)}.st2{fill:#fff}</style><g><g><linearGradient id="SVGID_1_" x1="140.846" x2="424.43" y1="287.407" y2="287.407" gradientUnits="userSpaceOnUse"><stop offset="0" style="stop-color:#30e9ff"/><stop offset="1" style="stop-color:#0d0551"/></linearGradient><polyline points="282.64 451.13 424.43 369.27 424.43 205.54 282.64 123.68 140.85 205.54 140.85 369.27 282.64 451.13" class="st1"/><polygon points="252.1 285.28 276.62 256.69 312.54 256.69 289.01 285.28" class="st2"/><polygon points="279.02 251.55 303.53 222.96 339.45 222.96 315.92 251.55" class="st2"/><polygon points="236.16 251.55 260.68 222.96 296.6 222.96 273.07 251.55" class="st2"/><polygon points="252.36 290.42 276.87 319.01 312.8 319.01 289.27 290.42" class="st2"/><polygon points="209.25 285.28 233.76 256.69 269.69 256.69 246.16 285.28" class="st2"/><polygon points="279.27 324.15 303.79 352.74 339.71 352.74 316.18 324.15" class="st2"/><polygon points="236.42 324.15 260.93 352.74 296.85 352.74 273.32 324.15" class="st2"/><polygon points="209.51 290.42 234.02 319.01 269.94 319.01 246.41 290.42" class="st2"/><g><g><g><polygon points="266.06 422.99 157.14 359.52 157.14 299.56 169.6 299.56 169.6 352.33 266.06 408.02" class="st2"/></g></g><g><g><polygon points="296.26 422.98 296.26 407.91 393.69 352.33 393.69 299.56 406.15 299.56 406.15 359.52" class="st2"/></g></g><g><polygon points="266.05 152.71 157.13 216.19 157.13 276.14 169.58 276.14 169.58 223.38 266.05 167.69" class="st2"/></g><g><g><polygon points="296.25 152.73 296.25 167.8 393.68 223.38 393.68 276.14 406.14 276.14 406.14 216.19" class="st2"/></g></g></g></g><ellipse cx="338.15" cy="287.24" class="st2" rx="7.83" ry="8.37"/></g></svg>