<svg xmlns="http://www.w3.org/2000/svg" xmlns:xlink="http://www.w3.org/1999/xlink" id="图层_1" x="0" y="0" version="1.1" viewBox="0 0 558.49 549.34" style="enable-background:new 0 0 558.49 549.34" xml:space="preserve"><style type="text/css">.st1{fill:url(#SVGID_1_)}.st2{fill:#fff}.st3{fill:url(#SVGID_2_)}.st4{fill:url(#SVGID_3_)}.st5{fill:url(#SVGID_4_)}.st6{fill:url(#SVGID_5_)}.st7{fill:url(#SVGID_6_)}.st8{fill:url(#SVGID_7_)}.st9{fill:url(#SVGID_8_)}.st10{fill:url(#SVGID_9_)}.st11{fill:url(#SVGID_10_)}.st12{fill:url(#SVGID_11_)}.st13{fill:url(#SVGID_12_)}.st14{fill:url(#SVGID_13_)}</style><g><polyline points="277.32 450.59 419 368.79 419 205.2 277.32 123.4 135.65 205.2 135.65 368.79 277.32 450.59" class="st2"/><linearGradient id="SVGID_1_" x1="186.029" x2="338.598" y1="270.401" y2="269.974" gradientUnits="userSpaceOnUse"><stop offset="0" style="stop-color:#30e9ff"/><stop offset="1" style="stop-color:#0d0551"/></linearGradient><polygon points="247.02 284.43 271.52 255.86 307.41 255.86 283.9 284.43" class="st1"/><linearGradient id="SVGID_2_" x1="185.935" x2="338.504" y1="236.775" y2="236.348" gradientUnits="userSpaceOnUse"><stop offset="0" style="stop-color:#30e9ff"/><stop offset="1" style="stop-color:#0d0551"/></linearGradient><polygon points="273.92 250.73 298.41 222.16 334.3 222.16 310.79 250.73" class="st3"/><linearGradient id="SVGID_3_" x1="185.935" x2="338.503" y1="236.655" y2="236.228" gradientUnits="userSpaceOnUse"><stop offset="0" style="stop-color:#30e9ff"/><stop offset="1" style="stop-color:#0d0551"/></linearGradient><polygon points="231.1 250.73 255.59 222.16 291.48 222.16 267.97 250.73" class="st4"/><linearGradient id="SVGID_4_" x1="186.124" x2="338.692" y1="304.102" y2="303.675" gradientUnits="userSpaceOnUse"><stop offset="0" style="stop-color:#30e9ff"/><stop offset="1" style="stop-color:#0d0551"/></linearGradient><polygon points="247.28 289.56 271.77 318.13 307.67 318.13 284.15 289.56" class="st5"/><linearGradient id="SVGID_5_" x1="186.029" x2="338.598" y1="270.281" y2="269.854" gradientUnits="userSpaceOnUse"><stop offset="0" style="stop-color:#30e9ff"/><stop offset="1" style="stop-color:#0d0551"/></linearGradient><polygon points="204.2 284.43 228.7 255.86 264.59 255.86 241.08 284.43" class="st6"/><linearGradient id="SVGID_6_" x1="186.218" x2="338.787" y1="337.879" y2="337.451" gradientUnits="userSpaceOnUse"><stop offset="0" style="stop-color:#30e9ff"/><stop offset="1" style="stop-color:#0d0551"/></linearGradient><polygon points="274.17 323.26 298.66 351.83 334.56 351.83 311.05 323.26" class="st7"/><linearGradient id="SVGID_7_" x1="186.218" x2="338.787" y1="337.759" y2="337.332" gradientUnits="userSpaceOnUse"><stop offset="0" style="stop-color:#30e9ff"/><stop offset="1" style="stop-color:#0d0551"/></linearGradient><polygon points="231.35 323.26 255.84 351.83 291.74 351.83 268.23 323.26" class="st8"/><linearGradient id="SVGID_8_" x1="186.123" x2="338.692" y1="303.982" y2="303.555" gradientUnits="userSpaceOnUse"><stop offset="0" style="stop-color:#30e9ff"/><stop offset="1" style="stop-color:#0d0551"/></linearGradient><polygon points="204.46 289.56 228.95 318.13 264.85 318.13 241.33 289.56" class="st9"/><g><g><linearGradient id="SVGID_9_" x1="170.858" x2="434.114" y1="364.033" y2="337.536" gradientUnits="userSpaceOnUse"><stop offset="0" style="stop-color:#30e9ff"/><stop offset="1" style="stop-color:#0d0551"/></linearGradient><polygon points="261.76 422.02 152.93 358.6 152.93 298.7 165.37 298.7 165.37 351.42 261.76 407.06" class="st10"/></g><g><linearGradient id="SVGID_10_" x1="172.194" x2="435.45" y1="377.306" y2="350.809" gradientUnits="userSpaceOnUse"><stop offset="0" style="stop-color:#30e9ff"/><stop offset="1" style="stop-color:#0d0551"/></linearGradient><polygon points="291.93 422.01 291.93 406.95 389.29 351.42 389.29 298.7 401.73 298.7 401.73 358.6" class="st11"/></g><g><linearGradient id="SVGID_11_" x1="156.3" x2="419.556" y1="219.392" y2="192.896" gradientUnits="userSpaceOnUse"><stop offset="0" style="stop-color:#30e9ff"/><stop offset="1" style="stop-color:#0d0551"/></linearGradient><polygon points="261.75 151.97 152.91 215.39 152.91 275.29 165.36 275.29 165.36 222.57 261.75 166.93" class="st12"/></g><g><linearGradient id="SVGID_12_" x1="157.637" x2="420.893" y1="232.678" y2="206.181" gradientUnits="userSpaceOnUse"><stop offset="0" style="stop-color:#30e9ff"/><stop offset="1" style="stop-color:#0d0551"/></linearGradient><polygon points="291.92 151.98 291.92 167.04 389.28 222.57 389.28 275.29 401.72 275.29 401.72 215.39" class="st13"/></g></g><linearGradient id="SVGID_13_" x1="334.312" x2="334.312" y1="-44.427" y2="-43.427" gradientUnits="userSpaceOnUse"><stop offset="0" style="stop-color:#30e9ff"/><stop offset="1" style="stop-color:#0d0551"/></linearGradient><ellipse cx="334.31" cy="287.38" class="st14" rx="7.83" ry="8.37"/></g></svg>