<svg xmlns="http://www.w3.org/2000/svg" xmlns:xlink="http://www.w3.org/1999/xlink" id="图层_1" x="0" y="0" version="1.1" viewBox="0 0 558.49 549.34" style="enable-background:new 0 0 558.49 549.34" xml:space="preserve"><style type="text/css">.st1{fill:url(#SVGID_1_)}.st2{fill:#fff}.st3{fill:url(#SVGID_2_)}.st4{fill:url(#SVGID_3_)}.st5{fill:url(#SVGID_4_)}.st6{fill:url(#SVGID_5_)}.st7{fill:url(#SVGID_6_)}.st8{fill:url(#SVGID_7_)}.st9{fill:url(#SVGID_8_)}.st10{fill:url(#SVGID_9_)}.st11{fill:url(#SVGID_10_)}.st12{fill:url(#SVGID_11_)}.st13{fill:url(#SVGID_12_)}.st14{fill:url(#SVGID_13_)}</style><g><g><polyline points="271.51 436.15 413.42 354.22 413.42 190.35 271.51 108.42 129.6 190.35 129.6 354.22 271.51 436.15" class="st2"/><linearGradient id="SVGID_1_" x1="180.048" x2="332.87" y1="255.662" y2="255.234" gradientUnits="userSpaceOnUse"><stop offset="0" style="stop-color:#30e9ff"/><stop offset="0" style="stop-color:#abdcff"/><stop offset="1" style="stop-color:#0396ff"/></linearGradient><polygon points="241.14 269.71 265.68 241.1 301.63 241.1 278.08 269.71" class="st1"/><linearGradient id="SVGID_2_" x1="179.954" x2="332.775" y1="221.98" y2="221.552" gradientUnits="userSpaceOnUse"><stop offset="0" style="stop-color:#30e9ff"/><stop offset="0" style="stop-color:#abdcff"/><stop offset="1" style="stop-color:#0396ff"/></linearGradient><polygon points="268.08 235.95 292.61 207.34 328.57 207.34 305.02 235.95" class="st3"/><linearGradient id="SVGID_3_" x1="179.953" x2="332.775" y1="221.86" y2="221.432" gradientUnits="userSpaceOnUse"><stop offset="0" style="stop-color:#30e9ff"/><stop offset="0" style="stop-color:#abdcff"/><stop offset="1" style="stop-color:#0396ff"/></linearGradient><polygon points="225.19 235.95 249.72 207.34 285.68 207.34 262.13 235.95" class="st4"/><linearGradient id="SVGID_4_" x1="180.143" x2="332.964" y1="289.419" y2="288.99" gradientUnits="userSpaceOnUse"><stop offset="0" style="stop-color:#30e9ff"/><stop offset="0" style="stop-color:#abdcff"/><stop offset="1" style="stop-color:#0396ff"/></linearGradient><polygon points="241.4 274.86 265.93 303.47 301.89 303.47 278.34 274.86" class="st5"/><linearGradient id="SVGID_5_" x1="180.048" x2="332.869" y1="255.542" y2="255.114" gradientUnits="userSpaceOnUse"><stop offset="0" style="stop-color:#30e9ff"/><stop offset="0" style="stop-color:#abdcff"/><stop offset="1" style="stop-color:#0396ff"/></linearGradient><polygon points="198.25 269.71 222.79 241.1 258.74 241.1 235.19 269.71" class="st6"/><linearGradient id="SVGID_6_" x1="174.401" x2="337.342" y1="323.273" y2="322.817" gradientUnits="userSpaceOnUse"><stop offset="0" style="stop-color:#30e9ff"/><stop offset="0" style="stop-color:#abdcff"/><stop offset="1" style="stop-color:#0396ff"/></linearGradient><polygon points="268.33 308.61 296.87 337.23 332.82 337.23 305.27 308.61" class="st7"/><linearGradient id="SVGID_7_" x1="180.237" x2="333.058" y1="323.131" y2="322.703" gradientUnits="userSpaceOnUse"><stop offset="0" style="stop-color:#30e9ff"/><stop offset="0" style="stop-color:#abdcff"/><stop offset="1" style="stop-color:#0396ff"/></linearGradient><polygon points="225.44 308.61 249.98 337.23 285.93 337.23 262.38 308.61" class="st8"/><linearGradient id="SVGID_8_" x1="180.142" x2="332.964" y1="289.298" y2="288.87" gradientUnits="userSpaceOnUse"><stop offset="0" style="stop-color:#30e9ff"/><stop offset="0" style="stop-color:#abdcff"/><stop offset="1" style="stop-color:#0396ff"/></linearGradient><polygon points="198.51 274.86 223.04 303.47 259 303.47 235.44 274.86" class="st9"/><g><g><linearGradient id="SVGID_9_" x1="131.764" x2="404.852" y1="345.771" y2="345.771" gradientUnits="userSpaceOnUse"><stop offset="0" style="stop-color:#30e9ff"/><stop offset="0" style="stop-color:#abdcff"/><stop offset="1" style="stop-color:#0396ff"/></linearGradient><polygon points="255.92 407.54 146.91 344.01 146.91 284.01 159.37 284.01 159.37 336.81 255.92 392.55" class="st10"/></g><g><linearGradient id="SVGID_10_" x1="131.764" x2="404.852" y1="345.764" y2="345.764" gradientUnits="userSpaceOnUse"><stop offset="0" style="stop-color:#30e9ff"/><stop offset="0" style="stop-color:#abdcff"/><stop offset="1" style="stop-color:#0396ff"/></linearGradient><polygon points="286.15 407.52 286.15 392.44 383.66 336.81 383.66 284.01 396.13 284.01 396.13 344.01" class="st11"/></g><g><linearGradient id="SVGID_11_" x1="131.764" x2="404.852" y1="198.797" y2="198.797" gradientUnits="userSpaceOnUse"><stop offset="0" style="stop-color:#30e9ff"/><stop offset="0" style="stop-color:#abdcff"/><stop offset="1" style="stop-color:#0396ff"/></linearGradient><polygon points="255.91 137.03 146.9 200.56 146.9 260.56 159.36 260.56 159.36 207.76 255.91 152.02" class="st12"/></g><g><linearGradient id="SVGID_12_" x1="131.764" x2="404.852" y1="198.803" y2="198.803" gradientUnits="userSpaceOnUse"><stop offset="0" style="stop-color:#30e9ff"/><stop offset="0" style="stop-color:#abdcff"/><stop offset="1" style="stop-color:#0396ff"/></linearGradient><polygon points="286.13 137.04 286.13 152.13 383.65 207.76 383.65 260.56 396.12 260.56 396.12 200.56" class="st13"/></g></g></g><linearGradient id="SVGID_13_" x1="320.266" x2="335.93" y1="273.497" y2="273.497" gradientUnits="userSpaceOnUse"><stop offset="0" style="stop-color:#30e9ff"/><stop offset="0" style="stop-color:#abdcff"/><stop offset="1" style="stop-color:#0396ff"/></linearGradient><ellipse cx="328.1" cy="273.5" class="st14" rx="7.83" ry="8.37"/></g></svg>