<svg xmlns="http://www.w3.org/2000/svg" xmlns:xlink="http://www.w3.org/1999/xlink" id="图层_1" x="0" y="0" version="1.1" viewBox="0 0 558.49 549.34" style="enable-background:new 0 0 558.49 549.34" xml:space="preserve"><style type="text/css">.st1{fill:url(#SVGID_1_)}.st2{fill:#fff}</style><linearGradient id="SVGID_1_" x1="132.481" x2="416.065" y1="273.654" y2="273.654" gradientUnits="userSpaceOnUse"><stop offset="0" style="stop-color:#30e9ff"/><stop offset="0" style="stop-color:#abdcff"/><stop offset="1" style="stop-color:#0396ff"/></linearGradient><polyline points="274.27 437.38 416.06 355.52 416.06 191.79 274.27 109.93 132.48 191.79 132.48 355.52 274.27 437.38" class="st1"/><polygon points="243.74 269.53 268.25 240.94 304.18 240.94 280.65 269.53" class="st2"/><polygon points="270.65 235.8 295.17 207.21 331.09 207.21 307.56 235.8" class="st2"/><polygon points="227.8 235.8 252.31 207.21 288.23 207.21 264.7 235.8" class="st2"/><polygon points="244 274.67 268.51 303.26 304.43 303.26 280.9 274.67" class="st2"/><polygon points="200.89 269.53 225.4 240.94 261.32 240.94 237.79 269.53" class="st2"/><polygon points="270.91 308.4 295.42 336.99 331.34 336.99 307.81 308.4" class="st2"/><polygon points="228.05 308.4 252.57 336.99 288.49 336.99 264.96 308.4" class="st2"/><polygon points="201.14 274.67 225.65 303.26 261.58 303.26 238.05 274.67" class="st2"/><g><g><g><polygon points="258.69 407.24 149.77 343.76 149.77 283.81 162.23 283.81 162.23 336.57 258.69 392.26" class="st2"/></g></g><g><g><polygon points="288.89 407.22 288.89 392.15 386.33 336.57 386.33 283.81 398.78 283.81 398.78 343.76" class="st2"/></g></g><g><polygon points="258.68 136.96 149.76 200.43 149.76 260.39 162.22 260.39 162.22 207.63 258.68 151.93" class="st2"/></g><g><g><polygon points="288.88 136.97 288.88 152.04 386.32 207.63 386.32 260.39 398.77 260.39 398.77 200.43" class="st2"/></g></g></g><ellipse cx="329.69" cy="272.48" class="st2" rx="7.83" ry="8.37"/></svg>